/* XPM */
static char *_8841ba5b5664027b29a5f9622ed64baxwOVPMNwQxNQrhyV[] = {
/* columns rows colors chars-per-pixel */
"32 32 4 1 ",
"  c #3A3F5E",
". c #4C6885",
"X c #4FA4B8",
"o c #92E8C0",
/* pixels */
"................................",
"................................",
"......        ..................",
"......        ..................",
"..        ......................",
"..        ......................",
"      ..........................",
"      ..........................",
"..  ......            ..........",
"..  ......            ..........",
"......            oooo    ......",
"......            oooo    ......",
"....    XX    XXoo    ooXX  ....",
"....    XX    XXoo    ooXX  ....",
"..              XXXXXXXX      ..",
"..              XXXXXXXX      ..",
"..        oooo            XX  ..",
"..        oooo            XX  ..",
"....  XXoo    ooXX    XX    ....",
"....  XXoo    ooXX    XX    ....",
"......  XXXXXXXX          ......",
"......  XXXXXXXX          ......",
"..........            ..........",
"..........            ..........",
"........................      ..",
"........................      ..",
"................            ....",
"................            ....",
"..................        ......",
"..................        ......",
"................................",
"................................"
};
