/* XPM */
static char *c76e7f57f9d548cc8b1fdb34875f7b795Xt6lssQfFnm6fE7[] = {
/* columns rows colors chars-per-pixel */
"16 16 4 1 ",
"  c #3A3F5E",
". c #4C6885",
"X c #4FA4B8",
"o c #92E8C0",
/* pixels */
"................",
"...    .........",
".    ...........",
"   .............",
". ...      .....",
"...      oo  ...",
"..  X  Xo  oX ..",
".       XXXX   .",
".    oo      X .",
".. Xo  oX  X  ..",
"... XXXX     ...",
".....      .....",
"............   .",
"........      ..",
".........    ...",
"................"
};
