/* XPM */
static char *_993d1ffb26843709103e52e703a262fbIASKZaRNET7CKsM[] = {
/* columns rows colors chars-per-pixel */
"32 32 5 1 ",
"  c #3A3F5E",
". c #CC2F7B",
"X c #FF5277",
"o c #4C6885",
"O c #FFEE83",
/* pixels */
"oooooooooooooooooooooooooooooooo",
"oooooooooooooooooooooooooooooooo",
"oooooooooooooooooooooooooooooooo",
"oooooooooooooooooooooooooooooooo",
"oooooooo..XXXX..oooooooooooooooo",
"oooooooo..XXXX..oooooooooooooooo",
"ooooooXXXXOOOOXXXXoooooooooooooo",
"ooooooXXXXOOOOXXXXoooooooooooooo",
"oooooo  ..XXXX..  oooooooooooooo",
"oooooo  ..XXXX..  oooooooooooooo",
"oooooooo        oooooooooooooooo",
"oooooooo        oooooooooooooooo",
"oooooooooooooooooooooooooooooooo",
"oooooooooooooooooooooooooooooooo",
"oooooooooooooooooooooooooooooooo",
"oooooooooooooooooooooooooooooooo",
"oooooooooooooooooooooooooooooooo",
"oooooooooooooooooooooooooooooooo",
"oooooooooooooooooooooooooooooooo",
"oooooooooooooooooooooooooooooooo",
"oooooooooooooo..XXXX..oooooooooo",
"oooooooooooooo..XXXX..oooooooooo",
"ooooooooooooXXXXOOOOXXXXoooooooo",
"ooooooooooooXXXXOOOOXXXXoooooooo",
"oooooooooooo  ..XXXX..  oooooooo",
"oooooooooooo  ..XXXX..  oooooooo",
"oooooooooooooo        oooooooooo",
"oooooooooooooo        oooooooooo",
"oooooooooooooooooooooooooooooooo",
"oooooooooooooooooooooooooooooooo",
"oooooooooooooooooooooooooooooooo",
"oooooooooooooooooooooooooooooooo"
};
