/* XPM */
static char *_996cd1c5b51499aa87dd35cfd9743728hGufjnjKYKhhgRY[] = {
/* columns rows colors chars-per-pixel */
"32 32 9 1 ",
"  c #1B1F21",
". c #283540",
"X c #3A3F5E",
"o c #3B7D4F",
"O c #63AB3F",
"+ c #F0B541",
"@ c #4C6885",
"# c #FFEE83",
"$ c #F5FFE8",
/* pixels */
"@@@@@@@@@@@@@@@@@@@@@@@@@@@@@@@@",
"@@@@@@@@@@@@@@@@@@@@@@@@@@@@@@@@",
"@@@@@@@@@@@@@@@@@@@@@@@@@@@@@@@@",
"@@@@@@@@@@@@@@@@@@@@@@@@@@@@@@@@",
"@@@@@@@@@@@@@@@@@@@@@@@@@@@@@@@@",
"@@@@@@@@@@@@@@@@@@@@@@@@@@@@@@@@",
"@@@@@@@@@@@@@@@@@@@@@@@@@@@@@@@@",
"@@@@@@@@@@@@@@@@@@@@@@@@@@@@@@@@",
"@@@@@@@@@@oooo@@@@oooo@@@@@@@@@@",
"@@@@@@@@@@oooo@@@@oooo@@@@@@@@@@",
"@@@@@@@@@@$$OOooooOO$$@@@@@@@@@@",
"@@@@@@@@@@$$OOooooOO$$@@@@@@@@@@",
"@@@@@@@@XX  OOOOOOOO  XX@@@@@@@@",
"@@@@@@@@XX  OOOOOOOO  XX@@@@@@@@",
"@@@@@@XXooOO........OOooXX@@@@@@",
"@@@@@@XXooOO........OOooXX@@@@@@",
"@@@@XXXXOO..++####++..OOXXXX@@@@",
"@@@@XXXXOO..++####++..OOXXXX@@@@",
"@@@@@@XXXXXXXXXXXXXXXXXXXX@@@@@@",
"@@@@@@XXXXXXXXXXXXXXXXXXXX@@@@@@",
"@@@@@@@@@@XXXXXXXXXXXX@@@@@@@@@@",
"@@@@@@@@@@XXXXXXXXXXXX@@@@@@@@@@",
"@@@@@@@@@@@@@@@@@@@@@@@@@@@@@@@@",
"@@@@@@@@@@@@@@@@@@@@@@@@@@@@@@@@",
"@@@@@@@@@@@@@@@@@@@@@@@@@@@@@@@@",
"@@@@@@@@@@@@@@@@@@@@@@@@@@@@@@@@",
"@@@@@@@@@@@@@@@@@@@@@@@@@@@@@@@@",
"@@@@@@@@@@@@@@@@@@@@@@@@@@@@@@@@",
"@@@@@@@@@@@@@@@@@@@@@@@@@@@@@@@@",
"@@@@@@@@@@@@@@@@@@@@@@@@@@@@@@@@",
"@@@@@@@@@@@@@@@@@@@@@@@@@@@@@@@@",
"@@@@@@@@@@@@@@@@@@@@@@@@@@@@@@@@"
};
