/* XPM */
static char *e53e5f7194dc42fdddaf338c3da2f32aJxaPO6Cr5i3XWJuW[] = {
/* columns rows colors chars-per-pixel */
"16 16 9 1 ",
"  c #1B1F21",
". c #283540",
"X c #3A3F5E",
"o c #3B7D4F",
"O c #63AB3F",
"+ c #F0B541",
"@ c #4C6885",
"# c #FFEE83",
"$ c #F5FFE8",
/* pixels */
"@@@@@@@@@@@@@@@@",
"@@@@@@@@@@@@@@@@",
"@@@@@@@@@@@@@@@@",
"@@@@@@@@@@@@@@@@",
"@@@@@oo@@oo@@@@@",
"@@@@@$OooO$@@@@@",
"@@@@X OOOO X@@@@",
"@@@XoO....OoX@@@",
"@@XXO.+##+.OXX@@",
"@@@XXXXXXXXXX@@@",
"@@@@@XXXXXX@@@@@",
"@@@@@@@@@@@@@@@@",
"@@@@@@@@@@@@@@@@",
"@@@@@@@@@@@@@@@@",
"@@@@@@@@@@@@@@@@",
"@@@@@@@@@@@@@@@@"
};
