/* XPM */
static char *_431151caacd4fa7fa9acfc352394ae0LgUc4elPfWvtO3zs[] = {
/* columns rows colors chars-per-pixel */
"32 32 10 1 ",
"  c black",
". c #291D2B",
"X c #990030",
"o c #AD2F45",
"O c #BD465C",
"+ c #4C6885",
"@ c #B4B4B4",
"# c #FFA3B1",
"$ c #FFC2A1",
"% c white",
/* pixels */
"++++++++++++++++++++      ++++++",
"++++++++++++++++++++      ++++++",
"++++++++++    oooo  %%%%%%  ++++",
"++++++++++    oooo  %%%%%%  ++++",
"++    ooooOOOOOOOOOO%%OOOOOOoo++",
"++    ooooOOOOOOOOOO%%OOOOOOoo++",
"++ooOOOOOOooXXOOOOXXoooo%%%%oo++",
"++ooOOOOOOooXXOOOOXXoooo%%%%oo++",
"++  oooooooo$$XXXX$$ooOOOOoo  ++",
"++  oooooooo$$XXXX$$ooOOOOoo  ++",
"++++ooOOOO$$oo$$$$oo$$%%%%oo++++",
"++++ooOOOO$$oo$$$$oo$$%%%%oo++++",
"++++++..oo$$oo$$$$oo$$OO..++++++",
"++++++..oo$$oo$$$$oo$$OO..++++++",
"++++++ooOO..$$$$$$$$..%%oo++++++",
"++++++ooOO..$$$$$$$$..%%oo++++++",
"++++++++oo++XXXXXXXX++oo++++++++",
"++++++++oo++XXXXXXXX++oo++++++++",
"++++++..##@@@@$$$$XXXX##..++++++",
"++++++..##@@@@$$$$XXXX##..++++++",
"++++++..####@@ooooXX####..++++++",
"++++++..####@@ooooXX####..++++++",
"++++..######@@ooooXX######..++++",
"++++..######@@ooooXX######..++++",
"++++..##XX##@@oooo@@##XX##..++++",
"++++..##XX##@@oooo@@##XX##..++++",
"++++++..####@@oooo@@####..++++++",
"++++++..####@@oooo@@####..++++++",
"++++++++................++++++++",
"++++++++................++++++++",
"++++++++++++++++++++++++++++++++",
"++++++++++++++++++++++++++++++++"
};
