/* XPM */
static char *_1959355644b41bdca7f14e6445a8b523oB24o9dDDp3bAGt[] = {
/* columns rows colors chars-per-pixel */
"32 32 10 1 ",
"  c None",
". c black",
"X c #291D2B",
"o c #990030",
"O c #AD2F45",
"+ c #BD465C",
"@ c #B4B4B4",
"# c #FFA3B1",
"$ c #FFC2A1",
"% c white",
/* pixels */
"                    ......      ",
"                    ......      ",
"          ....OOOO..%%%%  ..    ",
"          ....OOOO..%%%%  ..    ",
"  ....OOOO++++++++++%%++++++OO  ",
"  ....OOOO++++++++++%%++++++OO  ",
"  OO++++++OOoo++++ooOOOO%%%%OO  ",
"  OO++++++OOoo++++ooOOOO%%%%OO  ",
"  ..OOOOOOOO$$oooo$$OO++++OO..  ",
"  ..OOOOOOOO$$oooo$$OO++++OO..  ",
"    OO++++$$OO$$$$OO$$%%%%OO    ",
"    OO++++$$OO$$$$OO$$%%%%OO    ",
"      XXOO$$OO$$$$OO$$++XX      ",
"      XXOO$$OO$$$$OO$$++XX      ",
"      OO++XX$$$$$$$$XX%%OO      ",
"      OO++XX$$$$$$$$XX%%OO      ",
"        OO  oooooooo  OO        ",
"        OO  oooooooo  OO        ",
"      XX##@@@@$$$$oooo##XX      ",
"      XX##@@@@$$$$oooo##XX      ",
"      XX####@@OOOOoo####XX      ",
"      XX####@@OOOOoo####XX      ",
"    XX######@@OOOOoo######XX    ",
"    XX######@@OOOOoo######XX    ",
"    XX##oo##@@OOOO@@##oo##XX    ",
"    XX##oo##@@OOOO@@##oo##XX    ",
"      XX####@@OOOO@@####XX      ",
"      XX####@@OOOO@@####XX      ",
"        XXXXXXXXXXXXXXXX        ",
"        XXXXXXXXXXXXXXXX        ",
"                                ",
"                                "
};
