/* XPM */
static char *_dd7ef2fa8c847139fcace35a27bde28v33zwSWrv74t7e2n[] = {
/* columns rows colors chars-per-pixel */
"32 32 8 1 ",
"  c #283540",
". c #3A3F5E",
"X c #2F5753",
"o c #3B7D4F",
"O c #BD6A62",
"+ c #63AB3F",
"@ c #4C6885",
"# c #FFEE83",
/* pixels */
"@@@@@@@@@@  @@@@@@@@@@@@@@@@@@@@",
"@@@@@@@@@@  @@@@@@@@@@@@@@@@@@@@",
"@@@@@@@@  ##  @@@@@@@@@@@@@@@@@@",
"@@@@@@@@  ##  @@@@@@@@@@@@@@@@@@",
"@@@@@@@@  OO  @@@@@@  @@@@@@@@@@",
"@@@@@@@@  OO  @@@@@@  @@@@@@@@@@",
"@@@@@@@@  OO    @@  ##  @@@@@@@@",
"@@@@@@@@  OO    @@  ##  @@@@@@@@",
"@@@@  @@  OO  XX    OO  @@@@@@@@",
"@@@@  @@  OO  XX    OO  @@@@@@@@",
"@@  XX    OO  XX    OO  @@@@@@@@",
"@@  XX    OO  XX    OO  @@@@@@@@",
"@@@@  XX    ++  XX  OO  @@@@@@@@",
"@@@@  XX    ++  XX  OO  @@@@@@@@",
"@@@@@@  XX  ++ooXX  OO  @@  @@@@",
"@@@@@@  XX  ++ooXX  OO  @@  @@@@",
"@@@@@@  XX  ++ooXX++  oo  XX  @@",
"@@@@@@  XX  ++ooXX++  oo  XX  @@",
"@@@@@@@@  XX++oo  ++oo  XX  @@@@",
"@@@@@@@@  XX++oo  ++oo  XX  @@@@",
"@@@@@@@@  XXoo++  ++ooXX  @@@@@@",
"@@@@@@@@  XXoo++  ++ooXX  @@@@@@",
"@@  XXXX  ooXXoo++ooXX  @@@@@@@@",
"@@  XXXX  ooXXoo++ooXX  @@@@@@@@",
"@@..    XX  oooo++ooXX  ....@@@@",
"@@..    XX  oooo++ooXX  ....@@@@",
"..........    XX++XX  ........@@",
"..........    XX++XX  ........@@",
"@@@@......................@@@@@@",
"@@@@......................@@@@@@",
"@@@@@@@@@@@@@@@@@@@@@@@@@@@@@@@@",
"@@@@@@@@@@@@@@@@@@@@@@@@@@@@@@@@"
};
