/* XPM */
static char *_36dfbc7055449bfd72ce4e50ef06884nZuyS5erIm4kjw0l[] = {
/* columns rows colors chars-per-pixel */
"16 16 8 1 ",
"  c #283540",
". c #3A3F5E",
"X c #2F5753",
"o c #3B7D4F",
"O c #BD6A62",
"+ c #63AB3F",
"@ c #4C6885",
"# c #FFEE83",
/* pixels */
"@@@@@ @@@@@@@@@@",
"@@@@ # @@@@@@@@@",
"@@@@ O @@@ @@@@@",
"@@@@ O  @ # @@@@",
"@@ @ O X  O @@@@",
"@ X  O X  O @@@@",
"@@ X  + X O @@@@",
"@@@ X +oX O @ @@",
"@@@ X +oX+ o X @",
"@@@@ X+o +o X @@",
"@@@@ Xo+ +oX @@@",
"@ XX oXo+oX @@@@",
"@.  X oo+oX ..@@",
".....  X+X ....@",
"@@...........@@@",
"@@@@@@@@@@@@@@@@"
};
